<svg version="1.1" xmlns="http://www.w3.org/2000/svg" viewBox="0 0 812.9998779296875 704.0866605597053" width="1625.999755859375" height="1408.1733211194105">
  <!-- svg-source:excalidraw -->
  
  <defs>
    <style class="style-fonts">
      @font-face {
        font-family: "Virgil";
        src: url("https://excalidraw.com/Virgil.woff2");
      }
      @font-face {
        font-family: "Cascadia";
        src: url("https://excalidraw.com/Cascadia.woff2");
      }
    </style>
    
  </defs>
  <rect x="0" y="0" width="812.9998779296875" height="704.0866605597053" fill="#ffffff"></rect><g stroke-linecap="round" transform="translate(15 10) rotate(0 393 339.5)"><path d="M31.19 -0.58 L754.67 1.04 L768.34 3.33 L777.97 8.7 L785.18 16.31 L784.19 31.36 L784.57 645.32 L784.01 659.17 L777.03 672.69 L767.77 675.67 L752.69 680.15 L33.39 677.73 L17.3 678.77 L6.45 671.65 L2.24 662.03 L-1.86 646.08 L-1.49 32.75 L3.29 19.03 L8.76 7.16 L16.33 3.91 L31.23 -1.17" stroke="none" stroke-width="0" fill="#343a40"></path><path d="M32 0 M32 0 C295.99 0.27, 560.96 1.07, 754 0 M32 0 C184.1 -2.34, 336.45 -2.56, 754 0 M754 0 C776.69 -0.89, 785.19 10.18, 786 32 M754 0 C777.26 1.24, 788.19 8.8, 786 32 M786 32 C785.04 274.51, 785.75 515.87, 786 647 M786 32 C783.7 160.96, 783.25 290.13, 786 647 M786 647 C786.29 668.35, 773.82 677.88, 754 679 M786 647 C786.2 669.24, 776.57 677.35, 754 679 M754 679 C608.77 682.02, 464.3 682.16, 32 679 M754 679 C604.73 677.08, 455.2 676.48, 32 679 M32 679 C12.46 680.58, 0.8 666.87, 0 647 M32 679 C11.43 678.45, -1.74 669.31, 0 647 M0 647 C-0.36 439.82, 0.14 232.41, 0 32 M0 647 C0.05 438.94, -0.28 231.14, 0 32 M0 32 C0.07 10.47, 10.16 1.2, 32 0 M0 32 C2.24 11.15, 11.41 -1.68, 32 0" stroke="#343a40" stroke-width="1" fill="none"></path></g><g transform="translate(365.20299530029297 30.29773651215146) rotate(0 150.01496261154102 331.8944620237769)"><text x="150.01496261154105" y="0" font-family="Virgil, Segoe UI Emoji" font-size="531.031139238043px" fill="#4dabf7" text-anchor="middle" style="white-space: pre;" direction="ltr" dominant-baseline="text-before-edge">t</text></g><g stroke-linecap="round"><g transform="translate(93 225.99996948242188) rotate(0 89.17993272393943 63.14299950446002)"><path d="M-0.81 0.37 C28.93 21.25, 149.38 104.62, 179.17 125.49 M0.96 -0.48 C30.58 20.54, 149.48 105.57, 178.84 126.76" stroke="#ffffff" stroke-width="4" fill="none"></path></g></g><mask></mask><g stroke-linecap="round"><g transform="translate(98 223.99993896484375) rotate(0 89.08320719277953 63.77251212227159)"><path d="M0.57 0.81 C30.19 21.77, 149.12 105.09, 178.75 125.88 M-0.59 0.19 C28.85 21.33, 148.46 106.27, 178.2 127.36" stroke="#ffffff" stroke-width="4" fill="none"></path></g></g><mask></mask><g stroke-linecap="round"><g transform="translate(103 223.99993896484375) rotate(0 89 63)"><path d="M0 0 C29.67 21, 148.33 105, 178 126 M0 0 C29.67 21, 148.33 105, 178 126" stroke="#ffffff" stroke-width="4" fill="none"></path></g></g><mask></mask><g stroke-linecap="round"><g transform="translate(103 220.99993896484375) rotate(0 89 63)"><path d="M0 0 C29.67 21, 148.33 105, 178 126 M0 0 C29.67 21, 148.33 105, 178 126" stroke="#ffffff" stroke-width="4" fill="none"></path></g></g><mask></mask><g stroke-linecap="round"><g transform="translate(103.99993896484375 230.99993896484375) rotate(0 89 63)"><path d="M0 0 C29.67 21, 148.33 105, 178 126 M0 0 C29.67 21, 148.33 105, 178 126" stroke="#ffffff" stroke-width="4" fill="none"></path></g></g><mask></mask><g stroke-linecap="round"><g transform="translate(109.99993896484375 227.99993896484375) rotate(0 89 63)"><path d="M0 0 C29.67 21, 148.33 105, 178 126 M0 0 C29.67 21, 148.33 105, 178 126" stroke="#ffffff" stroke-width="4" fill="none"></path></g></g><mask></mask><g stroke-linecap="round"><g transform="translate(101.9998779296875 470) rotate(0 84.02690800577403 -58.395786337093455)"><path d="M-0.71 0.23 C27.53 -19.03, 140.6 -96.1, 168.77 -115.28 M1.11 -0.69 C29.32 -20.32, 140.46 -97.71, 168.22 -117.02" stroke="#ffffff" stroke-width="4" fill="none"></path></g></g><mask></mask><g stroke-linecap="round"><g transform="translate(104.9998779296875 471) rotate(0 84.32718181123028 -57.837836562097095)"><path d="M0.7 0.15 C28.52 -19.02, 139.17 -96.3, 166.9 -115.83 M-0.39 -0.82 C27.78 -19.7, 140.73 -94.96, 169.04 -114.2" stroke="#ffffff" stroke-width="4" fill="none"></path></g></g><mask></mask><g stroke-linecap="round"><g transform="translate(104.9998779296875 475) rotate(0 84.33161267357417 -58.32570456171874)"><path d="M0.78 1.05 C29.02 -18.36, 140.99 -96.31, 168.93 -115.72 M-0.27 0.55 C27.94 -19.3, 140.45 -98.03, 168.47 -117.7" stroke="#ffffff" stroke-width="4" fill="none"></path></g></g><mask></mask><g stroke-linecap="round"><g transform="translate(108.9998779296875 478.00006103515625) rotate(0 84.41889488639777 -58.0868881806731)"><path d="M-0.77 0.16 C26.96 -19.18, 139.08 -96.91, 167.27 -116.33 M1.03 -0.81 C29.07 -19.94, 141.81 -95.9, 169.6 -114.97" stroke="#ffffff" stroke-width="4" fill="none"></path></g></g><mask></mask><g stroke-linecap="round" transform="translate(10 11.000015258789062) rotate(0 396.49993896484375 339.99999237060547)"><path d="M32 0 M32 0 C210.7 -5.3, 389.82 -3.85, 761 0 M32 0 C302.3 -2.85, 573.77 -2.01, 761 0 M761 0 C784.69 0.06, 790.4 13.01, 793 32 M761 0 C782.91 -4.2, 793.67 7.14, 793 32 M793 32 C792 163.09, 793.67 294.99, 793 648 M793 32 C796.26 201.38, 795.29 370.28, 793 648 M793 648 C792.21 667.34, 785.81 678.72, 761 680 M793 648 C791.67 665.91, 784.89 677.77, 761 680 M761 680 C540.72 685.87, 321.71 684.71, 32 680 M761 680 C516.69 679.33, 272.76 678.83, 32 680 M32 680 C8.51 680.64, 3.04 671.37, 0 648 M32 680 C9.55 678.87, 1.45 669.83, 0 648 M0 648 C4.7 428.51, 3.24 211.23, 0 32 M0 648 C-4.12 423.34, -3.92 197.69, 0 32 M0 32 C-3.61 11.46, 13.77 -3.48, 32 0 M0 32 C-4.04 8.82, 11.81 0.55, 32 0" stroke="#4dabf7" stroke-width="4" fill="none"></path></g><g transform="translate(275 353) rotate(0 0.00004999999998744897 0.00004999999998744897)" stroke="none"><path fill="#ffffff" d="M 6.28,-6.28 Q 6.28,-6.28 7.11,-5.11 7.95,-3.94 8.37,-2.57 8.80,-1.19 8.76,0.23 8.72,1.67 8.22,3.02 7.73,4.37 6.83,5.49 5.93,6.61 4.72,7.38 3.50,8.15 2.11,8.50 0.72,8.85 -0.71,8.73 -2.14,8.61 -3.46,8.05 -4.78,7.48 -5.85,6.52 -6.92,5.56 -7.63,4.31 -8.33,3.06 -8.60,1.65 -8.87,0.23 -8.68,-1.18 -8.49,-2.60 -7.85,-3.89 -7.21,-5.18 -6.19,-6.19 -5.18,-7.21 -3.89,-7.85 -2.60,-8.49 -1.18,-8.68 0.24,-8.87 1.65,-8.60 3.06,-8.33 4.31,-7.62 5.56,-6.92 6.52,-5.85 7.48,-4.78 8.05,-3.46 8.62,-2.14 8.73,-0.70 8.85,0.72 8.50,2.11 8.15,3.51 7.38,4.72 6.61,5.93 5.49,6.83 4.36,7.73 3.02,8.22 1.67,8.72 0.23,8.76 -1.20,8.80 -2.57,8.37 -3.94,7.95 -5.11,7.11 -6.28,6.27 -6.28,6.28 -6.28,6.28 -6.94,5.43 -7.60,4.59 -8.04,3.61 -8.48,2.64 -8.67,1.58 -8.86,0.53 -8.80,-0.53 -8.73,-1.60 -8.41,-2.62 -8.09,-3.64 -7.54,-4.56 -6.99,-5.47 -6.23,-6.23 -5.47,-6.99 -4.56,-7.54 -3.64,-8.10 -2.62,-8.41 -1.60,-8.73 -0.53,-8.80 0.53,-8.86 1.59,-8.67 2.64,-8.48 3.61,-8.04 4.59,-7.60 5.43,-6.94 6.28,-6.28 6.28,-6.28 L 6.28,-6.28 Z"></path></g><g transform="translate(279.7273004705256 347.27272727272725) rotate(0 1.363622492009938 7.727272727272748)" stroke="none"><path fill="#ffffff" d="M 1.27,-2.23 Q 1.27,-2.23 2.20,-1.73 3.13,-1.24 4.21,-0.56 5.28,0.11 6.65,0.63 8.02,1.14 9.04,2.57 10.07,4.01 10.05,5.41 10.02,6.81 9.48,7.81 8.94,8.80 7.81,9.69 6.68,10.57 5.40,11.39 4.11,12.22 3.06,12.90 2.01,13.58 0.81,14.72 -0.37,15.85 -1.09,16.79 -1.81,17.72 -2.24,18.10 -2.68,18.47 -3.21,18.69 -3.74,18.91 -4.31,18.95 -4.89,18.98 -5.44,18.84 -6.00,18.69 -6.48,18.37 -6.95,18.05 -7.31,17.60 -7.66,17.15 -7.85,16.60 -8.04,16.06 -8.04,15.49 -8.05,14.91 -7.87,14.37 -7.69,13.82 -7.35,13.36 -7.01,12.90 -6.54,12.57 -6.07,12.24 -5.51,12.08 -4.96,11.92 -4.39,11.95 -3.81,11.97 -3.28,12.18 -2.74,12.39 -2.30,12.76 -1.86,13.12 -1.56,13.61 -1.26,14.10 -1.13,14.66 -1.00,15.22 -1.05,15.79 -1.11,16.36 -1.35,16.89 -1.58,17.41 -1.97,17.83 -2.36,18.25 -2.87,18.53 -3.37,18.80 -3.94,18.90 -4.50,19.00 -5.07,18.91 -5.64,18.83 -6.15,18.56 -6.66,18.30 -7.06,17.89 -7.46,17.47 -7.70,16.95 -7.95,16.44 -8.02,15.86 -8.09,15.29 -7.97,14.73 -7.85,14.17 -7.56,13.67 -7.27,13.18 -7.27,13.18 -7.27,13.18 -5.38,11.28 -3.50,9.39 -2.59,8.53 -1.69,7.67 -0.52,7.08 0.65,6.49 1.67,6.13 2.69,5.76 3.61,4.96 4.53,4.15 4.58,5.42 4.62,6.69 3.83,5.92 3.03,5.16 1.77,4.25 0.52,3.33 -0.37,2.78 -1.27,2.23 -1.52,2.04 -1.77,1.86 -1.97,1.62 -2.16,1.38 -2.30,1.10 -2.43,0.82 -2.50,0.52 -2.56,0.21 -2.55,-0.09 -2.54,-0.40 -2.45,-0.69 -2.37,-0.99 -2.21,-1.26 -2.06,-1.53 -1.84,-1.76 -1.63,-1.98 -1.37,-2.15 -1.11,-2.31 -0.81,-2.41 -0.52,-2.51 -0.21,-2.54 0.09,-2.57 0.39,-2.52 0.70,-2.47 0.99,-2.35 1.27,-2.23 1.27,-2.23 L 1.27,-2.23 Z"></path></g><g transform="translate(285.18181818181824 355) rotate(0 -3.863622492009881 2.5)" stroke="none"><path fill="#ffffff" d="M 0.82,2.48 Q 0.82,2.48 0.06,2.78 -0.70,3.08 -1.92,4.07 -3.13,5.06 -4.13,5.73 -5.12,6.41 -5.92,5.51 -6.71,4.61 -6.16,3.46 -5.60,2.31 -4.36,1.20 -3.12,0.09 -2.68,-1.09 -2.24,-2.28 -2.77,-1.76 -3.30,-1.25 -3.10,-1.63 -2.91,-2.00 -2.62,-2.32 -2.34,-2.64 -1.99,-2.88 -1.64,-3.13 -1.24,-3.28 -0.84,-3.43 -0.42,-3.48 -0.00,-3.53 0.42,-3.48 0.84,-3.43 1.24,-3.28 1.64,-3.13 1.99,-2.89 2.34,-2.64 2.62,-2.32 2.91,-2.01 3.10,-1.63 3.30,-1.25 3.40,-0.84 3.51,-0.42 3.51,-0.00 3.51,0.42 3.40,0.83 3.30,1.25 2.71,2.04 2.11,2.83 1.60,3.09 1.09,3.36 0.53,3.45 -0.03,3.53 -0.59,3.43 -1.16,3.34 -1.66,3.06 -2.16,2.79 -2.55,2.37 -2.94,1.95 -3.18,1.43 -3.41,0.91 -3.47,0.34 -3.53,-0.22 -3.40,-0.78 -3.27,-1.34 -2.97,-1.82 -2.67,-2.31 -2.23,-2.68 -1.79,-3.04 -1.26,-3.25 -0.72,-3.46 -0.15,-3.48 0.41,-3.51 0.96,-3.35 1.51,-3.19 1.98,-2.86 2.45,-2.54 2.79,-2.08 3.14,-1.62 3.31,-1.08 3.49,-0.53 3.49,0.03 3.48,0.60 3.29,1.14 3.10,1.68 2.75,2.13 2.40,2.59 1.93,2.90 1.45,3.22 0.90,3.37 0.34,3.52 -0.22,3.48 -0.79,3.44 -1.32,3.22 -1.85,3.01 -2.28,2.63 -2.71,2.26 -3.00,1.76 -3.29,1.27 -3.41,0.71 -3.53,0.15 -3.46,-0.41 -3.39,-0.98 -3.15,-1.49 -2.90,-2.01 -3.10,-1.63 -3.30,-1.25 -3.11,-1.63 -2.91,-2.00 -2.62,-2.32 -2.34,-2.64 -1.99,-2.88 -1.64,-3.13 -1.24,-3.28 -0.84,-3.43 -0.42,-3.48 -0.00,-3.53 0.42,-3.48 0.84,-3.43 1.24,-3.28 1.64,-3.13 1.99,-2.89 2.34,-2.64 2.62,-2.32 2.91,-2.01 3.10,-1.63 3.30,-1.25 3.40,-0.84 3.51,-0.42 3.51,-0.00 3.51,0.42 3.40,0.83 3.30,1.25 3.48,1.47 3.66,1.70 2.93,2.84 2.21,3.99 1.43,4.83 0.65,5.67 -0.32,6.56 -1.30,7.44 -2.70,8.27 -4.09,9.10 -5.40,9.67 -6.71,10.24 -7.87,10.34 -9.03,10.44 -10.36,9.12 -11.68,7.79 -11.54,6.01 -11.40,4.22 -10.28,3.15 -9.15,2.07 -8.05,1.31 -6.95,0.55 -5.85,-0.23 -4.75,-1.02 -3.59,-1.52 -2.42,-2.03 -1.62,-2.26 -0.82,-2.48 -0.51,-2.55 -0.20,-2.61 0.10,-2.60 0.42,-2.58 0.72,-2.50 1.02,-2.41 1.30,-2.25 1.57,-2.09 1.80,-1.87 2.03,-1.65 2.20,-1.39 2.37,-1.12 2.47,-0.82 2.57,-0.52 2.59,-0.20 2.62,0.10 2.57,0.41 2.51,0.73 2.39,1.02 2.27,1.31 2.08,1.56 1.89,1.81 1.64,2.01 1.40,2.21 1.11,2.35 0.82,2.48 0.82,2.48 L 0.82,2.48 Z"></path></g><g transform="translate(102.00000000000011 223.18181818181824) rotate(0 -0.681818181818187 0)" stroke="none"><path fill="#ffffff" d="M 2.12,-0.66 Q 2.12,-0.66 2.15,-0.13 2.18,0.40 1.96,0.88 1.74,1.36 1.32,1.69 0.91,2.02 0.38,2.12 -0.13,2.21 -0.64,2.05 -1.14,1.90 -1.52,1.52 -1.90,1.14 -2.05,0.64 -2.21,0.13 -2.12,-0.38 -2.02,-0.91 -1.69,-1.32 -1.36,-1.74 -0.88,-1.96 -0.39,-2.18 0.13,-2.15 0.66,-2.11 1.11,-1.84 1.57,-1.56 1.84,-1.11 L 2.12,-0.66 Z"></path></g><g transform="translate(282.000027743253 351.8181818181818) rotate(0 0.2272588556461983 2.272727272727309)" stroke="none"><path fill="#ffffff" d="M 2.14,-1.42 Q 2.14,-1.42 2.69,-0.66 3.25,0.10 3.80,1.24 4.35,2.38 4.32,3.84 4.28,5.30 3.59,6.36 2.89,7.42 2.73,6.04 2.58,4.67 1.64,4.09 0.71,3.50 0.03,2.60 -0.63,1.70 -0.43,-0.16 -0.24,-2.03 1.05,-3.10 2.35,-4.16 4.08,-3.67 5.82,-3.17 6.46,-2.08 7.10,-0.99 7.56,-0.01 8.03,0.96 8.08,2.25 8.14,3.54 7.44,5.28 6.74,7.02 5.95,7.77 5.16,8.52 5.05,8.56 4.94,8.60 4.57,8.84 4.20,9.08 3.78,9.23 3.37,9.37 2.93,9.42 2.49,9.46 2.05,9.39 1.62,9.33 1.21,9.16 0.80,8.99 0.44,8.73 0.09,8.47 -0.19,8.13 -0.47,7.80 -0.66,7.40 -0.86,7.00 -0.95,6.57 -1.05,6.14 -1.04,5.70 -1.02,5.26 -0.91,4.83 -0.79,4.41 -0.57,4.02 -0.36,3.64 -0.06,3.32 0.23,2.99 0.83,2.11 1.43,1.22 2.05,2.11 2.67,3.01 1.61,2.56 0.54,2.12 -0.46,2.50 -1.48,2.87 -1.94,3.22 -2.39,3.57 -2.95,3.83 -3.50,4.09 -4.11,4.16 -4.72,4.23 -5.32,4.10 -5.91,3.98 -6.44,3.66 -6.97,3.35 -7.37,2.89 -7.77,2.42 -8.00,1.86 -8.23,1.29 -8.27,0.68 -8.31,0.07 -8.15,-0.51 -7.99,-1.10 -7.65,-1.61 -7.31,-2.12 -6.82,-2.50 -6.34,-2.87 -5.76,-3.07 -5.18,-3.27 -4.57,-3.27 -3.96,-3.28 -3.37,-3.09 -2.79,-2.90 -2.30,-2.53 -1.81,-2.16 -1.47,-1.66 -1.12,-1.15 -0.95,-0.57 -0.78,0.01 -0.81,0.62 -0.84,1.24 -1.06,1.81 -1.28,2.38 -1.68,2.85 -2.07,3.32 -2.59,3.63 -3.11,3.95 -3.71,4.09 -4.31,4.23 -4.92,4.16 -5.53,4.10 -6.08,3.85 -6.64,3.60 -7.09,3.18 -7.54,2.76 -7.83,2.22 -8.12,1.68 -8.22,1.08 -8.32,0.48 -8.23,-0.12 -8.13,-0.72 -7.85,-1.27 -7.57,-1.81 -7.13,-2.23 -6.69,-2.66 -6.69,-2.66 -6.69,-2.66 -3.85,-3.67 -1.02,-4.69 0.14,-4.67 1.31,-4.66 2.47,-4.53 3.63,-4.41 4.84,-4.02 6.05,-3.63 6.89,-2.91 7.73,-2.19 8.19,-1.03 8.65,0.11 8.63,1.43 8.61,2.75 7.76,4.41 6.91,6.07 5.92,7.33 4.94,8.60 4.57,8.84 4.20,9.08 3.78,9.23 3.37,9.37 2.93,9.42 2.49,9.46 2.05,9.39 1.62,9.33 1.21,9.16 0.80,8.99 0.44,8.73 0.09,8.47 -0.19,8.13 -0.47,7.80 -0.66,7.40 -0.86,7.00 -0.95,6.57 -1.05,6.14 -1.04,5.70 -1.02,5.26 -0.91,4.83 -0.79,4.41 -0.57,4.02 -0.36,3.64 -0.06,3.32 0.23,2.99 1.28,3.05 2.33,3.11 1.77,1.76 1.21,0.41 3.66,0.83 6.10,1.24 6.05,2.44 5.99,3.63 5.89,4.80 5.78,5.96 4.90,7.32 4.02,8.68 2.54,9.03 1.06,9.38 -0.28,8.47 -1.63,7.56 -1.39,5.30 -1.16,3.03 -1.65,2.23 -2.14,1.42 -2.28,1.15 -2.42,0.87 -2.49,0.57 -2.56,0.26 -2.55,-0.04 -2.55,-0.35 -2.47,-0.65 -2.39,-0.95 -2.24,-1.22 -2.09,-1.49 -1.88,-1.72 -1.67,-1.95 -1.41,-2.12 -1.15,-2.29 -0.86,-2.40 -0.57,-2.51 -0.26,-2.54 0.04,-2.57 0.34,-2.53 0.65,-2.49 0.94,-2.37 1.23,-2.26 1.48,-2.08 1.73,-1.89 1.94,-1.66 2.14,-1.42 2.14,-1.42 L 2.14,-1.42 Z"></path></g></svg>